<?xml version="1.0" encoding="UTF-8"?>
<svg width="16px" height="16px" viewBox="0 0 16 16" version="1.1" xmlns="http://www.w3.org/2000/svg" xmlns:xlink="http://www.w3.org/1999/xlink">
    <title>4DA639A8-FD14-4259-9B49-0FA177D2D949@2x</title>
    <g id="------Wireframes" stroke="none" stroke-width="1" fill="none" fill-rule="evenodd">
        <g id="Mobile---iPhone-8---Article-Page" transform="translate(-117.000000, -169.000000)" fill="#FFFFFF" fill-rule="nonzero">
            <g id="Hero" transform="translate(0.000000, 54.000000)">
                <g id="Breadcrumb" transform="translate(117.000000, 112.000000)">
                    <path d="M8.26913917,18.8739289 L8.52168549,18.620342 C8.68902663,18.4522881 8.68902663,18.1797522 8.52168549,18.0116633 L2.1468878,11.6097141 L15.5714281,11.6097141 C15.8081053,11.6097141 16,11.4170021 16,11.1793169 L16,10.8206525 C16,10.5829673 15.8081053,10.3902552 15.5714281,10.3902552 L2.1468878,10.3902552 L8.52168549,3.98830603 C8.68902663,3.82025215 8.68902663,3.54771625 8.52168549,3.37962734 L8.26913917,3.12604041 C8.10176315,2.95798653 7.83041799,2.95798653 7.66307685,3.12604041 L0.125505857,10.6956453 C-0.0418352856,10.8637342 -0.0418352856,11.1362351 0.125505857,11.304359 L7.66307685,18.873964 C7.83041799,19.0420178 8.10176315,19.0420178 8.26913917,18.8739289 Z" id="arrow-left-white"></path>
                </g>
            </g>
        </g>
    </g>
</svg>