<?xml version="1.0" encoding="UTF-8"?>
<svg width="16px" height="16px" viewBox="0 0 16 16" version="1.1" xmlns="http://www.w3.org/2000/svg" xmlns:xlink="http://www.w3.org/1999/xlink">
    <title>8190F134-D38F-46AD-AF90-B4547D164FDA@2x</title>
    <g id="------Functions" stroke="none" stroke-width="1" fill="none" fill-rule="evenodd">
        <g id="Function/desktop/basket-preview" transform="translate(-1284.000000, -84.000000)" fill="#4A5568" fill-rule="nonzero">
            <g id="Basket-Preview" transform="translate(995.000000, 54.000000)">
                <path d="M298.697337,38.0002625 L303.825476,32.8721235 L304.883029,31.8145709 C305.03899,31.6585602 305.03899,31.4050366 304.883029,31.2490747 L303.75145,30.1174964 C303.595488,29.9615344 303.341965,29.9615344 303.185954,30.1174964 L297.000262,36.3031879 L290.814571,30.1170081 C290.65856,29.9609973 290.405037,29.9609973 290.249075,30.1170081 L289.117008,31.2485376 C288.960997,31.4045483 288.960997,31.6580719 289.117008,31.8140826 L295.303188,38.0002625 L289.117008,44.185954 C288.960997,44.3419647 288.960997,44.5954883 289.117008,44.7514502 L290.248538,45.8830286 C290.404548,46.0389905 290.658072,46.0389905 290.814083,45.8830286 L297.000262,39.697337 L302.128401,44.825476 L303.185954,45.8830286 C303.341965,46.0389905 303.595488,46.0389905 303.75145,45.8830286 L304.883029,44.7514502 C305.03899,44.5954883 305.03899,44.3419647 304.883029,44.185954 L298.697337,38.0002625 Z" id="close-icon"></path>
            </g>
        </g>
    </g>
</svg>