<?xml version="1.0" encoding="UTF-8"?>
<svg width="30px" height="41px" viewBox="0 0 30 41" version="1.1" xmlns="http://www.w3.org/2000/svg" xmlns:xlink="http://www.w3.org/1999/xlink">
    <title>473012A0-E0DF-4353-87A3-E2A6E7E7A317@2x</title>
    <g id="------Wireframes" stroke="none" stroke-width="1" fill="none" fill-rule="evenodd">
        <g id="Desktop---Template-Page" transform="translate(-260.000000, -7585.000000)" fill="#05000D" fill-rule="nonzero">
            <g id="Download" transform="translate(126.000000, 7541.000000)">
                <path d="M162.898399,51.6562317 L156.343697,45.1015294 C155.640573,44.398406 154.687435,44 153.695235,44 L137.749991,44 C135.679683,44.007782 134,45.6874655 134,47.757773 L134,80.2576955 C134,82.3280031 135.679683,84.0076866 137.749991,84.0076866 L160.249937,84.0076866 C162.320245,84.0076866 163.999928,82.3280031 163.999928,80.2576955 L163.999928,54.3124754 C163.999928,53.320275 163.601522,52.3593551 162.898399,51.6562317 Z M161.132733,53.429604 C161.29684,53.5937119 161.406169,53.7890239 161.460872,54.0077581 L153.999952,54.0077581 L153.999952,46.5468384 C154.218687,46.601541 154.413999,46.71087 154.578106,46.8749779 L161.132733,53.429604 Z M160.249937,81.5076926 L137.749991,81.5076926 C137.062508,81.5076926 136.499994,80.9451786 136.499994,80.2576955 L136.499994,47.757773 C136.499994,47.0702899 137.062508,46.507776 137.749991,46.507776 L151.499958,46.507776 L151.499958,54.6327566 C151.499958,55.6718014 152.335909,56.5077522 153.374954,56.5077522 L161.499934,56.5077522 L161.499934,80.2576955 C161.499934,80.9451786 160.937421,81.5076926 160.249937,81.5076926 Z M156.499946,62.445238 C156.499946,61.9296448 156.078042,61.5077402 155.562449,61.5077402 L142.43748,61.5077402 C141.921887,61.5077402 141.499982,61.9296448 141.499982,62.445238 L141.499982,63.0702365 C141.499982,63.5858298 141.921887,64.0077402 142.43748,64.0077402 L155.562449,64.0077402 C156.078042,64.0077402 156.499946,63.5858298 156.499946,63.0702365 L156.499946,62.445238 Z M156.499946,67.4452261 C156.499946,66.9296328 156.078042,66.5077283 155.562449,66.5077283 L142.43748,66.5077283 C141.921887,66.5077283 141.499982,66.9296328 141.499982,67.4452261 L141.499982,68.0702246 C141.499982,68.5858178 141.921887,69.0077283 142.43748,69.0077283 L155.562449,69.0077283 C156.078042,69.0077283 156.499946,68.5858178 156.499946,68.0702246 L156.499946,67.4452261 Z M156.499946,72.4452142 C156.499946,71.9296209 156.078042,71.5077164 155.562449,71.5077164 L142.43748,71.5077164 C141.921887,71.5077164 141.499982,71.9296209 141.499982,72.4452142 L141.499982,73.0702127 C141.499982,73.5858059 141.921887,74.0077164 142.43748,74.0077164 L155.562449,74.0077164 C156.078042,74.0077164 156.499946,73.5858059 156.499946,73.0702127 L156.499946,72.4452142 Z" id="download-icon"></path>
            </g>
        </g>
    </g>
</svg>