<?xml version="1.0" encoding="UTF-8"?>
<svg width="18px" height="18px" viewBox="0 0 18 18" version="1.1" xmlns="http://www.w3.org/2000/svg" xmlns:xlink="http://www.w3.org/1999/xlink">
    <title>96900E7C-D3E9-4A68-AA18-A3750F159D76@2x</title>
    <g id="------Wireframes" stroke="none" stroke-width="1" fill="none" fill-rule="evenodd">
        <g id="Desktop---Homepage" transform="translate(-126.000000, -7893.000000)" fill="#37A4EE" fill-rule="nonzero">
            <g id="Navigation/desktop/footer" transform="translate(0.000000, 7655.000000)">
                <path d="M143.387745,243.783739 C143.222608,243.647234 139.460005,240.621469 138.63284,239.963801 C137.855765,239.342663 136.52704,238 134.999979,238 C133.481054,238 132.165135,239.325978 131.367117,239.963801 C130.507096,240.647561 126.759188,243.662031 126.615748,243.779962 C126.275859,244.059426 126,244.643417 126,245.083453 L126,254.312461 C126,255.244443 126.755514,255.999957 127.687496,255.999957 L142.312461,255.999957 C143.244443,255.999957 143.999957,255.244443 143.999957,254.312461 L143.999957,245.084276 C143.999957,244.645786 143.725677,244.063168 143.387745,243.783739 Z M142.312461,254.101524 C142.312461,254.217945 142.217945,254.312461 142.101524,254.312461 L127.898433,254.312461 C127.782013,254.312461 127.687496,254.217945 127.687496,254.101524 L127.687496,245.184046 C127.687496,245.120325 127.716198,245.060107 127.765739,245.020041 C128.323672,244.569568 131.590483,241.941988 132.419159,241.283188 C133.057772,240.773114 134.170238,239.687496 134.999979,239.687496 C135.832946,239.687496 136.963711,240.790315 137.580798,241.283188 C138.409543,241.942057 141.676595,244.570049 142.234287,245.020865 C142.277442,245.055746 142.312461,245.129114 142.312461,245.184629 L142.312461,245.184801 L142.312461,254.101524 Z M141.187773,247.502568 L140.651367,246.851251 C140.504528,246.67293 140.241578,246.645842 140.061505,246.790552 C139.055366,247.599075 138.002466,248.444059 137.580798,248.779279 C136.942219,249.289352 135.829719,250.37497 134.999979,250.37497 C134.167011,250.37497 133.036246,249.272152 132.419159,248.779279 C131.997491,248.444025 130.94466,247.599075 129.938555,246.790449 C129.758483,246.645705 129.495532,246.672793 129.348659,246.851114 L128.812253,247.502499 C128.662908,247.683876 128.690442,247.952285 128.873605,248.099501 C129.899554,248.923955 130.970581,249.783392 131.367117,250.098631 C132.142235,250.718189 133.472368,252.062466 134.999979,252.062466 C136.518903,252.062466 137.834822,250.736488 138.63284,250.098631 C139.042594,249.772887 140.107785,248.918084 141.126421,248.09957 C141.309583,247.952388 141.337152,247.683945 141.187773,247.502568 Z" id="email-icon-white"></path>
            </g>
        </g>
    </g>
</svg>
