<?xml version="1.0" encoding="UTF-8"?>
<svg width="16px" height="13px" viewBox="0 0 16 13" version="1.1" xmlns="http://www.w3.org/2000/svg" xmlns:xlink="http://www.w3.org/1999/xlink">
    <title>FD504AE7-C937-491E-A633-59EC95D4BBA3@2x</title>
    <g id="------Wireframes" stroke="none" stroke-width="1" fill="none" fill-rule="evenodd">
        <g id="Mobile---iPhone-8---Homepage" transform="translate(-339.000000, -21.000000)" fill="#FFFFFF" fill-rule="nonzero">
            <g id="Navigation/mobile/header">
                <path d="M354.539025,22.265622 C354.655446,22.265622 354.749962,22.1711055 354.749962,22.054685 L354.749962,21.210937 C354.749962,21.0945165 354.655446,21 354.539025,21 L339.210937,21 C339.094517,21 339,21.0945165 339,21.210937 L339,22.054685 C339,22.1711055 339.094517,22.265622 339.210937,22.265622 L354.539025,22.265622 Z M354.539025,27.8906086 C354.655446,27.8906086 354.749962,27.796092 354.749962,27.6796716 L354.749962,26.8359236 C354.749962,26.7195031 354.655446,26.6249866 354.539025,26.6249866 L339.210937,26.6249866 C339.094517,26.6249866 339,26.7195031 339,26.8359236 L339,27.6796716 C339,27.796092 339.094517,27.8906086 339.210937,27.8906086 L354.539025,27.8906086 Z M354.539025,33.5155952 C354.655446,33.5155952 354.749962,33.4210786 354.749962,33.3046582 L354.749962,32.4609102 C354.749962,32.3444897 354.655446,32.2499732 354.539025,32.2499732 L339.210937,32.2499732 C339.094517,32.2499732 339,32.3444897 339,32.4609102 L339,33.3046582 C339,33.4210786 339.094517,33.5155952 339.210937,33.5155952 L354.539025,33.5155952 Z" id="hamburger-icon-white"></path>
            </g>
        </g>
    </g>
</svg>