<?xml version="1.0" encoding="UTF-8"?>
<svg width="18px" height="18px" viewBox="0 0 18 18" version="1.1" xmlns="http://www.w3.org/2000/svg" xmlns:xlink="http://www.w3.org/1999/xlink">
    <title>AE37CCFD-7F79-400D-8D9F-D785FC5D2D19@2x</title>
    <g id="------Wireframes" stroke="none" stroke-width="1" fill="none" fill-rule="evenodd">
        <g id="Desktop---Homepage" transform="translate(-126.000000, -7861.000000)" fill="#37A4EE" fill-rule="nonzero">
            <g id="Navigation/desktop/footer" transform="translate(0.000000, 7655.000000)">
                <path d="M143.024373,217.601535 L139.452864,216.070491 C139.285941,215.999492 139.003284,215.941882 138.821907,215.941882 C138.401132,215.941882 137.84289,216.205828 137.575854,216.531023 L136.426275,217.937269 C134.866941,217.08741 132.910968,215.132535 132.060216,213.573682 L133.466462,212.424103 C133.791657,212.156792 134.055569,211.598207 134.055569,211.17726 C134.055569,210.995815 133.997959,210.713021 133.927029,210.546029 L132.398422,206.976991 C132.169358,206.437667 131.507879,206 130.921932,206 C130.820549,206 130.658158,206.018574 130.559418,206.041473 L127.248044,206.804712 C126.559134,206.961061 126,207.661301 126,208.367754 L126,208.373041 C126,217.03059 133.019972,224.003459 141.62901,223.999958 L141.633817,223.999958 C142.340408,223.999958 143.040544,223.440686 143.196652,222.75157 L143.959514,219.439131 C143.981898,219.341353 144.000094,219.180575 144.000094,219.080257 C144.000094,218.494447 143.562977,217.831973 143.024373,217.601535 Z M141.562234,222.31562 C133.912953,222.280464 127.722652,216.08982 127.687496,208.436315 L130.875824,207.701572 L132.355541,211.154601 L129.961763,213.11315 C131.592646,216.59361 133.413728,218.408719 136.887528,220.038915 L138.845356,217.644416 L142.297355,219.124854 L141.562234,222.31562 Z" id="phone-icon-white"></path>
            </g>
        </g>
    </g>
</svg>
