<?xml version="1.0" encoding="UTF-8"?>
<svg width="60px" height="60px" viewBox="0 0 60 60" version="1.1" xmlns="http://www.w3.org/2000/svg" xmlns:xlink="http://www.w3.org/1999/xlink">
    <title>562F6106-1F7B-47D2-AE07-BDA97EBA443D@2x</title>
    <g id="------Wireframes" stroke="none" stroke-width="1" fill="none" fill-rule="evenodd">
        <g id="Desktop---Template-Page" transform="translate(-330.000000, -1962.000000)" fill="#FFFFFF" fill-rule="nonzero">
            <g id="2-column" transform="translate(0.000000, 1724.000000)">
                <g id="Button" transform="translate(268.000000, 238.000000)">
                    <path d="M92,60 C108.572581,60 122,46.5725806 122,30 C122,13.4274194 108.572581,0 92,0 C75.4274194,0 62,13.4274194 62,30 C62,46.5725806 75.4274194,60 92,60 Z M65.8709677,30 C65.8709677,15.6411054 77.4959205,3.87096774 92,3.87096774 C106.358895,3.87096774 118.129032,15.4959205 118.129032,30 C118.129032,44.3588946 106.50408,56.1290323 92,56.1290323 C77.6411054,56.1290323 65.8709677,44.5040795 65.8709677,30 Z M105.995991,27.8225806 L84.7056688,14.8790323 C82.7944021,13.8145398 80.3870968,15.1814516 80.3870968,17.4193548 L80.3870968,42.5806452 C80.3870968,44.8064989 82.7822344,46.1854602 84.7056688,45.1209677 L105.995991,32.9032258 C107.979791,31.8024666 107.979791,28.9355075 105.995991,27.8225806 Z M84.2580645,39.6532022 L84.2580645,20.4314989 C84.2580645,19.8629269 84.8749527,19.5120731 85.3588237,19.8144925 L101.628985,29.6975806 C102.100806,29.9879505 102.088757,30.6773721 101.616935,30.9435248 L85.3467742,40.2822581 C84.8629032,40.5604602 84.2580645,40.2097247 84.2580645,39.6532022 Z" id="play-icon-white"></path>
                </g>
            </g>
        </g>
    </g>
</svg>