<?xml version="1.0" encoding="UTF-8"?>
<svg width="12px" height="13px" viewBox="0 0 12 13" version="1.1" xmlns="http://www.w3.org/2000/svg" xmlns:xlink="http://www.w3.org/1999/xlink">
    <title>769B1852-F41D-4C54-BE0A-1239BDE30ECC@2x</title>
    <g id="------Functions" stroke="none" stroke-width="1" fill="none" fill-rule="evenodd">
        <g id="Menu/mobile-iphone-8/menu" transform="translate(-343.000000, -21.000000)" fill="#FFFFFF" fill-rule="nonzero">
            <g id="Navigation/mobile/header">
                <path d="M350.273003,27.6252178 L354.119107,23.7791136 L354.912271,22.9859491 C355.029243,22.8689411 355.029243,22.6787984 354.912271,22.561827 L354.063588,21.7131432 C353.946616,21.5961718 353.756474,21.5961718 353.639465,21.7131432 L349.000197,26.3524118 L344.360928,21.712777 C344.24392,21.5957689 344.053777,21.5957689 343.936806,21.712777 L343.087756,22.5614241 C342.970748,22.6784322 342.970748,22.8685748 343.087756,22.9855829 L347.727391,27.6252178 L343.087756,32.2644864 C342.970748,32.3814945 342.970748,32.5716371 343.087756,32.6886086 L343.936403,33.5372923 C344.053411,33.6542638 344.243554,33.6542638 344.360562,33.5372923 L349.000197,28.8980237 L352.846301,32.7441279 L353.639465,33.5372923 C353.756474,33.6542638 353.946616,33.6542638 354.063588,33.5372923 L354.912271,32.6886086 C355.029243,32.5716371 355.029243,32.3814945 354.912271,32.2644864 L350.273003,27.6252178 Z" id="close-icon-white"></path>
            </g>
        </g>
    </g>
</svg>