<?xml version="1.0" encoding="UTF-8"?>
<svg width="18px" height="19px" viewBox="0 0 18 19" version="1.1" xmlns="http://www.w3.org/2000/svg" xmlns:xlink="http://www.w3.org/1999/xlink">
    <title>22409A3A-AA31-4850-A774-2DE9534ADF39@2x</title>
    <g id="------Wireframes" stroke="none" stroke-width="1" fill="none" fill-rule="evenodd">
        <g id="Desktop---Homepage" transform="translate(-147.000000, -18.000000)" fill="#FFFFFF" fill-rule="nonzero">
            <g id="Search" transform="translate(126.000000, 0.000000)">
                <g id="search-icon-white" transform="translate(21.000000, 18.250038)">
                    <path d="M17.8769105,16.9311959 L13.3417651,12.3960505 C13.2609127,12.3151981 13.1554443,12.2730039 13.0429377,12.2730039 L12.680836,12.2730039 C13.8866856,10.9687238 14.6249651,9.22849362 14.6249651,7.31248257 C14.6249651,3.27302534 11.3519398,0 7.31248257,0 C3.27302534,0 0,3.27302534 0,7.31248257 C0,11.3519398 3.27302534,14.6249651 7.31248257,14.6249651 C9.22849362,14.6249651 10.9687238,13.8866856 12.2730039,12.6843379 L12.2730039,13.0429377 C12.2730039,13.1554443 12.3187344,13.2609127 12.3960505,13.3417651 L16.9311959,17.8769105 C17.0964367,18.0421514 17.3636442,18.0421514 17.5288507,17.8769105 L17.8769105,17.5288507 C18.0421514,17.3636442 18.0421514,17.0964367 17.8769105,16.9311959 Z M7.31248257,13.4999678 C3.89179446,13.4999678 1.12499732,10.7331707 1.12499732,7.31248257 C1.12499732,3.89179446 3.89179446,1.12499732 7.31248257,1.12499732 C10.7331707,1.12499732 13.4999678,3.89179446 13.4999678,7.31248257 C13.4999678,10.7331707 10.7331707,13.4999678 7.31248257,13.4999678 Z" id="Shape"></path>
                </g>
            </g>
        </g>
    </g>
</svg>